<?xml version="1.0" encoding="iso-8859-1"?>
<!-- Generator: Adobe Illustrator 19.0.0, SVG Export Plug-In . SVG Version: 6.00 Build 0)  -->
<svg version="1.1" id="Capa_1" xmlns="http://www.w3.org/2000/svg" xmlns:xlink="http://www.w3.org/1999/xlink" x="0px" y="0px"
	 viewBox="0 0 499.463 499.463" style="enable-background:new 0 0 499.463 499.463;" xml:space="preserve">
<g>
	<path style="fill:#010002;" d="M494.842,451.957c-5.625-2.583-11.053-6.086-16.798-9.796
		c-12.415-8.016-25.253-16.306-41.763-16.306c-12.736,0-23.694,6.903-34.291,13.577c-9.636,6.069-18.736,11.801-28.04,11.801
		c-0.668,0-1.341-0.09-2.012-0.147l61.458-164.754c0-0.007,0.004-0.015,0.007-0.02c0-0.002,0-0.002,0-0.002
		c0.004-0.007,0.004-0.015,0.007-0.022c0.339-0.925,0.499-1.894,0.485-2.858l-0.794-53.969c-0.055-3.658-2.601-6.803-6.168-7.616
		l-56.375-12.854v-63.096c0-2.92-2.364-5.288-5.286-5.288h-21.716V103.98c0-2.92-2.364-5.288-5.286-5.288h-60.31V58.375
		c0-7.126-2.907-13.778-8.189-18.73c-5.33-4.998-12.623-7.623-20.04-7.24c-7.395-0.395-14.714,2.24-20.04,7.239
		c-5.281,4.953-8.189,11.605-8.189,18.732v40.317h-60.308c-2.92,0-5.288,2.368-5.288,5.288v36.628h-21.716
		c-2.92,0-5.288,2.368-5.288,5.288v63.097l-56.371,12.854c-3.566,0.812-6.113,3.958-6.168,7.616l-0.792,53.969
		c-0.013,0.874,0.117,1.75,0.393,2.596c0.002,0.007,0.004,0.015,0.007,0.022v0.002c0.002,0.007,0.005,0.013,0.007,0.02
		c0,0,0,0,0,0.002c0.002,0.005,0.004,0.013,0.007,0.02c0,0,0,0,0,0.002c0.002,0.005,0.004,0.013,0.007,0.018
		c0,0.002,0,0.004,0,0.004c0.002,0.007,0.005,0.013,0.007,0.018c0,0.002,0,0.004,0,0.005c0.004,0.005,0.005,0.011,0.007,0.016
		c0,0.002,0,0.004,0.002,0.005c0.002,0.005,0.004,0.011,0.005,0.016c0,0,0,0.002,0.002,0.004c0.002,0.005,0.004,0.011,0.005,0.018
		c0,0.002,0.002,0.004,0.002,0.005c0.002,0.005,0.004,0.011,0.005,0.016c0.002,0.002,0.002,0.004,0.002,0.005
		c0.002,0.005,0.004,0.011,0.007,0.016c0,0.002,0,0.004,0.002,0.005c0.005,0.009,0.004,0.016,0.007,0.02
		c0.002,0.005,0.004,0.011,0.005,0.018c0,0,0.002,0.002,0.002,0.004c0.002,0.007,0.005,0.013,0.007,0.018
		c0,0.002,0,0.002,0.002,0.004c0.002,0.007,0.004,0.013,0.005,0.02l61.437,164.707c-0.854,0.1-1.708,0.194-2.563,0.194
		c-8.989,0-18.031-5.689-27.603-11.712c-10.678-6.719-21.719-13.667-34.459-13.667c-16.463,0-29.235,8.295-41.585,16.317
		c-5.709,3.709-11.102,7.211-16.69,9.792c-3.976,1.836-5.712,6.548-3.876,10.525c1.339,2.9,4.208,4.608,7.206,4.608
		c1.113,0,2.242-0.235,3.319-0.732c6.625-3.058,12.754-7.04,18.683-10.891c10.891-7.075,21.18-13.758,32.943-13.758
		c8.166,0,16.834,5.455,26.011,11.229c11.055,6.956,22.486,14.149,36.051,14.149c4.483,0,8.688-0.836,12.724-2.14
		c0.194,0.014,0.375,0.087,0.571,0.087c0.92,0,1.856-0.16,2.77-0.501c1.145-0.428,2.065-1.149,2.861-1.974
		c5.697-2.61,11.074-6.027,16.359-9.396c9.242-5.891,17.971-11.455,26.82-11.455c8.918,0,17.818,5.614,27.239,11.557
		c10.77,6.796,21.909,13.821,35.093,13.821c13.337,0,24.233-7.423,33.843-13.971c8.616-5.867,16.75-11.408,25.53-11.408
		c8.933,0,18.295,5.576,28.211,11.477c6.278,3.738,12.686,7.503,19.423,10.186c0.614,0.474,1.299,0.876,2.064,1.162
		c0.878,0.327,1.775,0.479,2.66,0.491c4.127,1.255,8.38,2.063,12.837,2.063c13.883,0,25.898-7.566,36.495-14.24
		c9.093-5.729,17.679-11.138,25.836-11.138c11.836,0,22.193,6.689,33.162,13.77c5.96,3.849,12.124,7.829,18.776,10.885
		c3.989,1.821,8.692,0.084,10.517-3.898C500.566,458.495,498.821,453.786,494.842,451.957z M232.078,58.375
		c0-4.175,1.721-8.087,4.849-11.02c3.337-3.127,7.77-4.689,12.466-4.379c0.226,0.015,0.452,0.015,0.678,0
		c4.721-0.332,9.133,1.253,12.466,4.381c3.129,2.934,4.852,6.847,4.852,11.018v40.317h-17.658h-17.654V58.375z M166.482,109.268
		h60.308h22.942h22.943h60.31v31.341h-83.253h-83.249V109.268z M139.479,151.184h110.253h110.255v55.398l-107.697-24.557
		c-0.863-0.195-1.716-0.207-2.549-0.123c-0.838-0.086-1.697-0.074-2.566,0.123l-107.696,24.556V151.184z M82.133,235.927
		l167.599-38.216l167.599,38.216l0.554,37.486l-166.266-40.772c-0.098-0.024-0.196-0.021-0.294-0.041
		c-0.275-0.057-0.553-0.09-0.836-0.117c-0.253-0.024-0.503-0.046-0.754-0.046c-0.253,0-0.506,0.022-0.762,0.046
		c-0.273,0.027-0.542,0.059-0.809,0.113c-0.108,0.022-0.215,0.019-0.324,0.045L81.583,273.413L82.133,235.927z M187.051,425.855
		c-13.475,0-24.594,7.087-35.346,13.942c-3.163,2.016-6.263,3.976-9.33,5.705L84.049,289.14l160.397-39.333v200.809
		c-7.022-1.551-14.188-6.02-21.694-10.757C211.839,432.974,200.555,425.855,187.051,425.855z M308.755,425.855
		c-13.668,0-24.714,7.523-34.459,14.162c-6.564,4.472-12.849,8.718-19.279,10.416V249.806l160.4,39.334L356.829,446.2
		c-3.842-1.943-7.75-4.254-11.75-6.634C333.757,432.824,322.052,425.855,308.755,425.855z"/>
	<path style="fill:#010002;" d="M296.941,275.5c-9.701,0-17.596,7.894-17.596,17.597c0,9.703,7.894,17.597,17.596,17.597
		s17.596-7.894,17.596-17.597C314.537,283.395,306.642,275.5,296.941,275.5z M296.941,300.12c-3.872,0-7.024-3.149-7.024-7.022
		s3.151-7.022,7.024-7.022s7.024,3.149,7.024,7.022S300.814,300.12,296.941,300.12z"/>
</g>
<g>
</g>
<g>
</g>
<g>
</g>
<g>
</g>
<g>
</g>
<g>
</g>
<g>
</g>
<g>
</g>
<g>
</g>
<g>
</g>
<g>
</g>
<g>
</g>
<g>
</g>
<g>
</g>
<g>
</g>
</svg>
